<svg width="102" height="18" viewBox="0 0 102 18" fill="none" xmlns="http://www.w3.org/2000/svg">
<path d="M2.538 10.41L8.244 12.768L7.83 14.01L0.882 11.058V9.78L7.83 6.828L8.244 8.07L2.538 10.41ZM15.75 10.842C15.75 9.87 15.522 9.12 15.066 8.592C14.61 8.052 14.016 7.782 13.284 7.782C12.876 7.782 12.552 7.8 12.312 7.836C12.084 7.872 11.904 7.914 11.772 7.962V13.236C11.94 13.392 12.186 13.536 12.51 13.668C12.834 13.8 13.17 13.866 13.518 13.866C13.914 13.866 14.25 13.788 14.526 13.632C14.814 13.476 15.048 13.266 15.228 13.002C15.408 12.726 15.54 12.408 15.624 12.048C15.708 11.676 15.75 11.274 15.75 10.842ZM17.28 10.842C17.28 11.478 17.196 12.066 17.028 12.606C16.872 13.134 16.638 13.59 16.326 13.974C16.026 14.358 15.654 14.658 15.21 14.874C14.766 15.09 14.262 15.198 13.698 15.198C13.254 15.198 12.864 15.144 12.528 15.036C12.192 14.928 11.94 14.808 11.772 14.676V17.97H10.278V6.9C10.602 6.804 11.016 6.708 11.52 6.612C12.036 6.516 12.624 6.468 13.284 6.468C13.884 6.468 14.43 6.57 14.922 6.774C15.414 6.978 15.834 7.272 16.182 7.656C16.53 8.028 16.8 8.484 16.992 9.024C17.184 9.564 17.28 10.17 17.28 10.842ZM22.374 6.648H25.902V7.89H22.374V11.778C22.374 12.198 22.404 12.54 22.464 12.804C22.524 13.068 22.62 13.284 22.752 13.452C22.896 13.608 23.076 13.716 23.292 13.776C23.508 13.836 23.772 13.866 24.084 13.866C24.516 13.866 24.864 13.83 25.128 13.758C25.392 13.686 25.644 13.59 25.884 13.47L26.1 14.73C25.932 14.802 25.662 14.898 25.29 15.018C24.93 15.138 24.48 15.198 23.94 15.198C23.316 15.198 22.806 15.126 22.41 14.982C22.014 14.838 21.702 14.622 21.474 14.334C21.258 14.046 21.108 13.692 21.024 13.272C20.94 12.84 20.898 12.342 20.898 11.778V7.89H19.134V6.648H20.898V4.308L22.374 4.056V6.648ZM28.926 15V7.098C30.15 6.678 31.386 6.468 32.634 6.468C33.018 6.468 33.384 6.486 33.732 6.522C34.08 6.546 34.464 6.606 34.884 6.702L34.614 8.016C34.23 7.908 33.888 7.842 33.588 7.818C33.3 7.782 32.982 7.764 32.634 7.764C31.902 7.764 31.158 7.866 30.402 8.07V15H28.926ZM44.46 6.648C44.244 7.428 43.998 8.196 43.722 8.952C43.446 9.696 43.164 10.428 42.876 11.148C42.588 11.856 42.294 12.534 41.994 13.182C41.694 13.83 41.406 14.436 41.13 15H39.78C39.216 13.872 38.646 12.588 38.07 11.148C37.494 9.708 36.984 8.208 36.54 6.648H38.16C38.304 7.176 38.466 7.734 38.646 8.322C38.838 8.91 39.036 9.498 39.24 10.086C39.444 10.674 39.648 11.244 39.852 11.796C40.068 12.336 40.278 12.822 40.482 13.254C40.686 12.822 40.896 12.336 41.112 11.796C41.34 11.244 41.562 10.674 41.778 10.086C41.994 9.498 42.198 8.91 42.39 8.322C42.594 7.734 42.768 7.176 42.912 6.648H44.46Z" fill="#F5F5F4"/>
<path d="M57.228 8.412C57.06 8.256 56.814 8.112 56.49 7.98C56.166 7.836 55.83 7.764 55.482 7.764C55.086 7.764 54.744 7.842 54.456 7.998C54.18 8.154 53.952 8.37 53.772 8.646C53.592 8.91 53.46 9.234 53.376 9.618C53.292 9.99 53.25 10.392 53.25 10.824C53.25 11.796 53.478 12.546 53.934 13.074C54.39 13.602 54.984 13.866 55.716 13.866C56.088 13.866 56.4 13.848 56.652 13.812C56.916 13.776 57.108 13.74 57.228 13.704V8.412ZM57.228 2.778L58.722 2.526V14.766C58.398 14.862 57.984 14.958 57.48 15.054C56.976 15.15 56.388 15.198 55.716 15.198C55.116 15.198 54.57 15.096 54.078 14.892C53.586 14.688 53.166 14.4 52.818 14.028C52.47 13.644 52.2 13.182 52.008 12.642C51.816 12.102 51.72 11.496 51.72 10.824C51.72 10.176 51.798 9.588 51.954 9.06C52.122 8.52 52.362 8.058 52.674 7.674C52.986 7.29 53.358 6.99 53.79 6.774C54.234 6.558 54.738 6.45 55.302 6.45C55.746 6.45 56.136 6.504 56.472 6.612C56.808 6.72 57.06 6.834 57.228 6.954V2.778ZM64.662 6.45C65.79 6.45 66.66 6.804 67.272 7.512C67.884 8.208 68.19 9.27 68.19 10.698V11.22H62.214C62.274 12.084 62.556 12.744 63.06 13.2C63.576 13.644 64.296 13.866 65.22 13.866C65.748 13.866 66.198 13.824 66.57 13.74C66.942 13.656 67.224 13.566 67.416 13.47L67.614 14.73C67.434 14.826 67.11 14.928 66.642 15.036C66.174 15.144 65.646 15.198 65.058 15.198C64.338 15.198 63.702 15.09 63.15 14.874C62.61 14.646 62.16 14.34 61.8 13.956C61.44 13.572 61.17 13.116 60.99 12.588C60.81 12.048 60.72 11.466 60.72 10.842C60.72 10.098 60.834 9.45 61.062 8.898C61.29 8.346 61.59 7.89 61.962 7.53C62.334 7.17 62.754 6.9 63.222 6.72C63.69 6.54 64.17 6.45 64.662 6.45ZM66.678 10.014C66.678 9.306 66.492 8.748 66.12 8.34C65.748 7.92 65.256 7.71 64.644 7.71C64.296 7.71 63.978 7.776 63.69 7.908C63.414 8.04 63.174 8.214 62.97 8.43C62.766 8.646 62.604 8.892 62.484 9.168C62.364 9.444 62.286 9.726 62.25 10.014H66.678ZM77.46 6.648C77.244 7.428 76.998 8.196 76.722 8.952C76.446 9.696 76.164 10.428 75.876 11.148C75.588 11.856 75.294 12.534 74.994 13.182C74.694 13.83 74.406 14.436 74.13 15H72.78C72.216 13.872 71.646 12.588 71.07 11.148C70.494 9.708 69.984 8.208 69.54 6.648H71.16C71.304 7.176 71.466 7.734 71.646 8.322C71.838 8.91 72.036 9.498 72.24 10.086C72.444 10.674 72.648 11.244 72.852 11.796C73.068 12.336 73.278 12.822 73.482 13.254C73.686 12.822 73.896 12.336 74.112 11.796C74.34 11.244 74.562 10.674 74.778 10.086C74.994 9.498 75.198 8.91 75.39 8.322C75.594 7.734 75.768 7.176 75.912 6.648H77.46Z" fill="#F5F5F4"/>
<rect x="46.75" y="0.75" width="35.5" height="16.5" rx="4.25" stroke="#F5F5F4" stroke-width="1.5"/>
<path d="M86.772 17.97H85.242L90.264 2.418H91.758L86.772 17.97ZM93.882 8.07L94.296 6.828L101.244 9.78V11.058L94.296 14.01L93.882 12.768L99.588 10.41L93.882 8.07Z" fill="#F5F5F4"/>
</svg>
